:FULLY-SPECIFIED
:FORCE-ALL-JOINTS-BE-3DOF
:DEGREES
102
root -2.84372 16.5189 -36.189 3.27183 0.176708 -2.33904
lfemur -21.2817 5.87464 -9.13866
ltibia 44.5094 -0 0
lfoot -21.7349 0.206789 -0.000152195
ltoes -8.40602 0 0
rfemur -21.7915 -5.78908 13.8151
rtibia 47.1718 -0 0
rfoot -25.6012 1.52838 -1.52079e-05
rtoes -7.02293 0 0
lowerback 7.45592 1.96899 -1.70459
upperback -3.69708 2.54969 1.22899
thorax -8.22367 1.37667 1.88476
lowerneck -2.60954 -3.81334 -6.51066
upperneck 6.0694 -5.16005 5.93686
head 2.79811 -2.55322 2.9353
lclavicle -1.69853e-14 -1.43498e-15 0
lhumerus -26.8627 -4.08413 89.7396
lradius 0 0 0
lwrist -30.351 0 0
lhand -28.5634 30.1847 -1.69586e-05
lfingers 7.12502 -0 0
lthumb -1.93002 60.1557 -1.59507e-05
rclavicle -1.69853e-14 -1.43498e-15 0
rhumerus -32.481 2.83615 -80.2579
rradius 30.5982 -0 0
rwrist 2.62407 0 0
rhand -19.9086 -27.5997 1.62278e-05
rfingers 7.12502 -0 0
rthumb 6.42802 -57.4821 1.97189e-05
103
root -2.84242 16.5191 -36.1874 3.31321 0.178525 -2.3447
lfemur -21.3272 5.87868 -9.14229
ltibia 44.5303 -0 0
lfoot -21.7551 0.220074 -9.16085e-05
ltoes -8.4453 0 0
rfemur -21.8308 -5.79995 13.8156
rtibia 47.1814 -0 0
rfoot -25.6143 1.53042 -9.15386e-06
rtoes -7.04679 0 0
lowerback 7.38546 1.96802 -1.71166
upperback -3.71799 2.54876 1.23
thorax -8.20554 1.37682 1.8918
lowerneck -2.61507 -3.81404 -6.502
upperneck 6.11531 -5.16237 5.93098
head 2.81419 -2.55434 2.93158
lclavicle -1.69853e-14 -1.43498e-15 0
lhumerus -26.8721 -4.07391 89.7434
lradius 0 0 0
lwrist -30.3506 0 0
lhand -28.5542 30.1815 -1.02076e-05
lfingers 7.12502 -0 0
lthumb -1.92112 60.1526 -9.601e-06
rclavicle -1.69853e-14 -1.43498e-15 0
rhumerus -32.4821 2.81388 -80.2471
rradius 30.5895 -0 0
rwrist 2.63173 0 0
rhand -19.8925 -27.598 9.76775e-06
rfingers 7.12502 -0 0
rthumb 6.44358 -57.4799 1.18691e-05
104
root -2.84146 16.5192 -36.1862 3.34425 0.17989 -2.34894
lfemur -21.3614 5.88172 -9.14502
ltibia 44.546 -0 0
lfoot -21.7702 0.230038 -4.31e-05
ltoes -8.47476 0 0
rfemur -21.8602 -5.8081 13.816
rtibia 47.1885 -0 0
rfoot -25.6242 1.53195 -4.30671e-06
rtoes -7.06469 0 0
lowerback 7.33261 1.96728 -1.71696
upperback -3.73367 2.54806 1.23075
thorax -8.19194 1.37693 1.89708
lowerneck -2.61921 -3.81457 -6.4955
upperneck 6.14974 -5.16411 5.92656
head 2.82625 -2.55518 2.92878
lclavicle -1.69853e-14 -1.43498e-15 0
lhumerus -26.8791 -4.06625 89.7463
lradius 0 0 0
lwrist -30.3503 0 0
lhand -28.5473 30.1791 -4.8025e-06
lfingers 7.12502 -0 0
lthumb -1.91444 60.1502 -4.51708e-06
rclavicle -1.69853e-14 -1.43498e-15 0
rhumerus -32.4829 2.79717 -80.2391
rradius 30.5831 -0 0
rwrist 2.63748 0 0
rhand -19.8804 -27.5966 4.59554e-06
rfingers 7.12502 -0 0
rthumb 6.45525 -57.4782 5.58418e-06
105
root -2.84087 16.5193 -36.1854 3.36375 0.180749 -2.35161
lfemur -21.3829 5.88362 -9.14674
ltibia 44.5559 -0 0
lfoot -21.7797 0.236297 -1.12816e-05
ltoes -8.49327 0 0
rfemur -21.8787 -5.81322 13.8162
rtibia 47.193 -0 0
rfoot -25.6304 1.53292 -1.1273e-06
rtoes -7.07593 0 0
lowerback 7.29942 1.96681 -1.72029
upperback -3.74352 2.54762 1.23123
thorax -8.1834 1.377 1.90039
lowerneck -2.62182 -3.8149 -6.49143
upperneck 6.17138 -5.1652 5.92379
head 2.83382 -2.55571 2.92703
lclavicle -1.69853e-14 -1.43498e-15 0
lhumerus -26.8835 -4.06143 89.7481
lradius 0 0 0
lwrist -30.3502 0 0
lhand -28.5429 30.1775 -1.25707e-06
lfingers 7.12502 -0 0
lthumb -1.91025 60.1487 -1.18236e-06
rclavicle -1.69853e-14 -1.43498e-15 0
rhumerus -32.4834 2.78668 -80.2341
rradius 30.579 -0 0
rwrist 2.6411 0 0
rhand -19.8728 -27.5958 1.2029e-06
rfingers 7.12502 -0 0
rthumb 6.46259 -57.4772 1.46168e-06
106
root -2.8277 16.5086 -36.1716 3.37051 0.181047 -2.35253
lfemur -21.3903 5.88428 -9.14733
ltibia 44.5593 0 0
lfoot -21.783 0.238469 0
ltoes -8.49969 0 0
rfemur -21.8851 -5.815 13.8163
rtibia 47.1946 0 0
rfoot -25.6325 1.53325 0
rtoes -7.07983 0 0
lowerback 7.2879 1.96665 -1.72144
upperback -3.74694 2.54747 1.23139
thorax -8.18044 1.37702 1.90154
lowerneck -2.62272 -3.81502 -6.49001
upperneck 6.17888 -5.16558 5.92283
head 2.83645 -2.55589 2.92642
lclavicle -3.9524e-16 8.59744e-15 0
lhumerus -26.885 -4.05976 89.7487
lradius 24.9782 0 0
lwrist -30.3501 0 0
lhand -28.5414 30.177 0
lfingers 7.12502 0 0
lthumb -1.90879 60.1482 0
rclavicle -3.9524e-16 8.59744e-15 0
rhumerus -32.4836 2.78304 -80.2323
rradius 30.5776 0 0
rwrist 2.64235 0 0
rhand -19.8702 -27.5955 0
rfingers 7.12502 0 0
rthumb 6.46513 -57.4768 0
107
root -2.82595 16.507 -36.1699 3.37455 0.183931 -2.35913
lfemur -21.4105 5.88238 -9.14143
ltibia 44.5866 -0 0
lfoot -21.7944 0.247203 -3.00656e-05
ltoes -8.51595 0 0
rfemur -21.8996 -5.82644 13.8218
rtibia 47.2132 -0 0
rfoot -25.6423 1.54213 -2.62503e-05
rtoes -7.08464 0 0
lowerback 7.29188 1.96752 -1.72725
upperback -3.74881 2.548 1.23167
thorax -8.18512 1.37765 1.90487
lowerneck -2.62162 -3.81531 -6.4921
upperneck 6.17287 -5.16593 5.92608
head 2.83445 -2.55603 2.92792
lclavicle -3.9524e-16 8.59744e-15 0
lhumerus -26.8761 -4.02874 89.7272
lradius 24.9741 -0 0
lwrist -30.3652 0 0
lhand -28.5393 30.1869 6.36265e-06
lfingers 7.12502 -0 0
lthumb -1.90673 60.1581 6.15329e-06
rclavicle -3.9524e-16 8.59744e-15 0
rhumerus -32.4888 2.77287 -80.2369
rradius 30.5749 -0 0
rwrist 2.64704 0 0
rhand -19.8687 -27.5863 4.21144e-06
rfingers 7.12502 -0 0
rthumb 6.4666 -57.4676 4.0849e-06
108
root -2.8244 16.5053 -36.1686 3.37975 0.187645 -2.36762
lfemur -21.4365 5.87993 -9.13382
ltibia 44.6218 -0 0
lfoot -21.8092 0.258447 -6.62032e-05
ltoes -8.53688 0 0
rfemur -21.9183 -5.84117 13.8289
rtibia 47.237 -0 0
rfoot -25.655 1.55357 -5.78021e-05
rtoes -7.09083 0 0
lowerback 7.297 1.96863 -1.73474
upperback -3.75122 2.54868 1.23203
thorax -8.19114 1.37846 1.90915
lowerneck -2.62021 -3.81568 -6.49479
upperneck 6.16513 -5.16637 5.93027
head 2.83187 -2.55621 2.92986
lclavicle -3.9524e-16 8.59744e-15 0
lhumerus -26.8646 -3.9888 89.6995
lradius 24.9689 -0 0
lwrist -30.3847 0 0
lhand -28.5365 30.1996 1.40103e-05
lfingers 7.12502 -0 0
lthumb -1.90407 60.1709 1.35493e-05
rclavicle -3.9524e-16 8.59744e-15 0
rhumerus -32.4956 2.75977 -80.2428
rradius 30.5713 -0 0
rwrist 2.65308 0 0
rhand -19.8667 -27.5745 9.27344e-06
rfingers 7.12502 -0 0
rthumb 6.4685 -57.4557 8.9948e-06
109
root -2.82304 16.5036 -36.1676 3.38596 0.192089 -2.37778
lfemur -21.4676 5.87701 -9.12472
ltibia 44.6639 -0 0
lfoot -21.8268 0.271899 -0.000105642
ltoes -8.56193 0 0
rfemur -21.9406 -5.85878 13.8375
rtibia 47.2656 -0 0
rfoot -25.6701 1.56726 -9.22363e-05
rtoes -7.09824 0 0
lowerback 7.30312 1.96997 -1.74369
upperback -3.7541 2.54949 1.23246
thorax -8.19835 1.37944 1.91428
lowerneck -2.61852 -3.81612 -6.49801
upperneck 6.15586 -5.1669 5.93528
head 2.82878 -2.55643 2.93217
lclavicle -3.9524e-16 8.59744e-15 0
lhumerus -26.8509 -3.94101 89.6664
lradius 24.9626 -0 0
lwrist -30.4081 0 0
lhand -28.5332 30.2149 2.23566e-05
lfingers 7.12502 -0 0
lthumb -1.9009 60.1862 2.1621e-05
rclavicle -3.9524e-16 8.59744e-15 0
rhumerus -32.5037 2.7441 -80.2499
rradius 30.5671 -0 0
rwrist 2.66031 0 0
rhand -19.8644 -27.5604 1.47979e-05
rfingers 7.12502 -0 0
rthumb 6.47077 -57.4416 1.43532e-05
110
root -2.82185 16.5018 -36.167 3.39306 0.197165 -2.38938
lfemur -21.5032 5.87368 -9.11434
ltibia 44.712 -0 0
lfoot -21.8469 0.287259 -0.000145615
ltoes -8.59052 0 0
rfemur -21.9662 -5.87889 13.8472
rtibia 47.2982 -0 0
rfoot -25.6874 1.58288 -0.000127137
rtoes -7.1067 0 0
lowerback 7.31012 1.9715 -1.75391
upperback -3.75739 2.55042 1.23295
thorax -8.20658 1.38055 1.92013
lowerneck -2.61659 -3.81663 -6.50169
upperneck 6.14529 -5.1675 5.941
head 2.82526 -2.55668 2.93481
lclavicle -3.9524e-16 8.59744e-15 0
lhumerus -26.8353 -3.88643 89.6286
lradius 24.9554 -0 0
lwrist -30.4347 0 0
lhand -28.5295 30.2323 3.08159e-05
lfingers 7.12502 -0 0
lthumb -1.89727 60.2036 2.98019e-05
rclavicle -3.9524e-16 8.59744e-15 0
rhumerus -32.5129 2.72621 -80.2579
rradius 30.5623 -0 0
rwrist 2.66857 0 0
rhand -19.8617 -27.5443 2.0397e-05
rfingers 7.12502 -0 0
rthumb 6.47337 -57.4254 1.97842e-05
111
root -2.82082 16.4999 -36.1667 3.4009 0.202774 -2.4022
lfemur -21.5424 5.87 -9.10286
ltibia 44.7651 -0 0
lfoot -21.8691 0.304226 -0.000183499
ltoes -8.62211 0 0
rfemur -21.9944 -5.9011 13.858
rtibia 47.3343 -0 0
rfoot -25.7064 1.60014 -0.000160213
rtoes -7.11604 0 0
lowerback 7.31784 1.97319 -1.76521
upperback -3.76103 2.55145 1.23349
thorax -8.21567 1.38178 1.9266
lowerneck -2.61445 -3.81719 -6.50575
upperneck 6.13361 -5.16817 5.94732
head 2.82137 -2.55695 2.93773
lclavicle -3.9524e-16 8.59744e-15 0
lhumerus -26.8182 -3.82613 89.5869
lradius 24.9475 -0 0
lwrist -30.4641 0 0
lhand -28.5253 30.2515 3.88332e-05
lfingers 7.12502 -0 0
lthumb -1.89327 60.2229 3.75554e-05
rclavicle -3.9524e-16 8.59744e-15 0
rhumerus -32.523 2.70644 -80.2668
rradius 30.557 -0 0
rwrist 2.67768 0 0
rhand -19.8587 -27.5265 2.57037e-05
rfingers 7.12502 -0 0
rthumb 6.47623 -57.4075 2.49314e-05
112
root -2.81995 16.4981 -36.1667 3.40934 0.208815 -2.416
lfemur -21.5847 5.86606 -9.09049
ltibia 44.8223 -0 0
lfoot -21.8931 0.322497 -0.000216939
ltoes -8.65612 0 0
rfemur -22.0247 -5.92501 13.8696
rtibia 47.3731 -0 0
rfoot -25.727 1.61872 -0.00018941
rtoes -7.12611 0 0
lowerback 7.32616 1.97501 -1.77737
upperback -3.76494 2.55256 1.23407
thorax -8.22545 1.3831 1.93356
lowerneck -2.61216 -3.81779 -6.51013
upperneck 6.12103 -5.16889 5.95413
head 2.81718 -2.55725 2.94088
lclavicle -3.9524e-16 8.59744e-15 0
lhumerus -26.7997 -3.76118 89.542
lradius 24.9389 -0 0
lwrist -30.4958 0 0
lhand -28.5208 30.2722 4.59099e-05
lfingers 7.12502 -0 0
lthumb -1.88895 60.2436 4.43992e-05
rclavicle -3.9524e-16 8.59744e-15 0
rhumerus -32.534 2.68515 -80.2764
rradius 30.5513 -0 0
rwrist 2.6875 0 0
rhand -19.8555 -27.5074 3.03878e-05
rfingers 7.12502 -0 0
rthumb 6.47932 -57.3882 2.94747e-05
113
root -2.81922 16.4962 -36.167 3.41825 0.215191 -2.43055
lfemur -21.6293 5.86191 -9.07745
ltibia 44.8826 -0 0
lfoot -21.9183 0.341772 -0.000243944
ltoes -8.69201 0 0
rfemur -22.0568 -5.95023 13.8818
rtibia 47.414 -0 0
rfoot -25.7486 1.63833 -0.000212988
rtoes -7.13672 0 0
lowerback 7.33494 1.97693 -1.79019
upperback -3.76907 2.55372 1.23468
thorax -8.23578 1.3845 1.9409
lowerneck -2.60973 -3.81843 -6.51474
upperneck 6.10776 -5.16964 5.9613
head 2.81276 -2.55756 2.94419
lclavicle -3.9524e-16 8.59744e-15 0
lhumerus -26.7803 -3.69265 89.4946
lradius 24.9299 -0 0
lwrist -30.5292 0 0
lhand -28.5161 30.2941 5.16249e-05
lfingers 7.12502 -0 0
lthumb -1.8844 60.2655 4.99262e-05
rclavicle -3.9524e-16 8.59744e-15 0
rhumerus -32.5456 2.66269 -80.2865
rradius 30.5453 -0 0
rwrist 2.69786 0 0
rhand -19.8521 -27.4871 3.41705e-05
rfingers 7.12502 -0 0
rthumb 6.48257 -57.3679 3.31438e-05
114
root -2.81862 16.4943 -36.1674 3.42747 0.221802 -2.44564
lfemur -21.6755 5.85761 -9.06392
ltibia 44.9452 -0 0
lfoot -21.9445 0.36175 -0.000262971
ltoes -8.7292 0 0
rfemur -22.09 -5.97636 13.8946
rtibia 47.4565 -0 0
rfoot -25.7711 1.65865 -0.0002296
rtoes -7.14773 0 0
lowerback 7.34403 1.97893 -1.80349
upperback -3.77335 2.55493 1.23532
thorax -8.24648 1.38595 1.94852
lowerneck -2.60722 -3.81909 -6.51953
upperneck 6.094 -5.17042 5.96875
head 2.80818 -2.55788 2.94763
lclavicle -3.9524e-16 8.59744e-15 0
lhumerus -26.7602 -3.6216 89.4456
lradius 24.9206 -0 0
lwrist -30.5638 0 0
lhand -28.5112 30.3167 5.56514e-05
lfingers 7.12502 -0 0
lthumb -1.87969 60.2882 5.38202e-05
rclavicle -3.9524e-16 8.59744e-15 0
rhumerus -32.5575 2.63941 -80.297
rradius 30.539 -0 0
rwrist 2.70859 0 0
rhand -19.8486 -27.4662 3.68357e-05
rfingers 7.12502 -0 0
rthumb 6.48595 -57.3469 3.57289e-05
